<svg width="256" height="256" viewBox="0 0 256 256" fill="none" xmlns="http://www.w3.org/2000/svg">
<rect width="256" height="256" rx="47" fill="#2F8938"/>
<g filter="url(#filter0_i_51_381)">
<path d="M136.457 93.8C146.457 93.8 155.524 96.1333 163.657 100.8C171.924 105.333 178.39 111.8 183.057 120.2C187.724 128.467 190.057 138.133 190.057 149.2C190.057 160.267 187.724 170 183.057 178.4C178.39 186.667 171.924 193.133 163.657 197.8C155.524 202.333 146.457 204.6 136.457 204.6C121.657 204.6 110.39 199.933 102.657 190.6V203H72.857V54.6H104.057V106.8C111.924 98.1333 122.724 93.8 136.457 93.8ZM131.057 179C139.057 179 145.59 176.333 150.657 171C155.857 165.533 158.457 158.267 158.457 149.2C158.457 140.133 155.857 132.933 150.657 127.6C145.59 122.133 139.057 119.4 131.057 119.4C123.057 119.4 116.457 122.133 111.257 127.6C106.19 132.933 103.657 140.133 103.657 149.2C103.657 158.267 106.19 165.533 111.257 171C116.457 176.333 123.057 179 131.057 179Z" fill="white"/>
</g>
<defs>
<filter id="filter0_i_51_381" x="72.857" y="54.6001" width="117.2" height="150" filterUnits="userSpaceOnUse" color-interpolation-filters="sRGB">
<feFlood flood-opacity="0" result="BackgroundImageFix"/>
<feBlend mode="normal" in="SourceGraphic" in2="BackgroundImageFix" result="shape"/>
<feColorMatrix in="SourceAlpha" type="matrix" values="0 0 0 0 0 0 0 0 0 0 0 0 0 0 0 0 0 0 127 0" result="hardAlpha"/>
<feOffset dy="-8"/>
<feComposite in2="hardAlpha" operator="arithmetic" k2="-1" k3="1"/>
<feColorMatrix type="matrix" values="0 0 0 0 0 0 0 0 0 0 0 0 0 0 0 0 0 0 0.25 0"/>
<feBlend mode="normal" in2="shape" result="effect1_innerShadow_51_381"/>
</filter>
</defs>
</svg>
