<svg width="38" height="38" viewBox="0 0 38 38" fill="none" xmlns="http://www.w3.org/2000/svg">
<circle cx="29" cy="9" r="2" fill="#8522E7"/>
<circle cx="29" cy="9" r="2" fill="#FFF700"/>
<path fill-rule="evenodd" clip-rule="evenodd" d="M10 0C4.47715 0 0 4.47715 0 10V28C0 33.5228 4.47715 38 10 38H28C33.5228 38 38 33.5228 38 28V10C38 4.47715 33.5228 0 28 0H10ZM10 4C6.68629 4 4 6.68629 4 10V28C4 31.3137 6.68629 34 10 34H28C31.3137 34 34 31.3137 34 28V10C34 6.68629 31.3137 4 28 4H10Z" fill="#FFF700"/>
<path fill-rule="evenodd" clip-rule="evenodd" d="M19 29C24.5228 29 29 24.5228 29 19C29 13.4772 24.5228 9 19 9C13.4772 9 9 13.4772 9 19C9 24.5228 13.4772 29 19 29ZM19 25C22.3137 25 25 22.3137 25 19C25 15.6863 22.3137 13 19 13C15.6863 13 13 15.6863 13 19C13 22.3137 15.6863 25 19 25Z" fill="#FFF700"/>
<path fill-rule="evenodd" clip-rule="evenodd" d="M19 29C24.5228 29 29 24.5228 29 19C29 13.4772 24.5228 9 19 9C13.4772 9 9 13.4772 9 19C9 24.5228 13.4772 29 19 29ZM19 25C22.3137 25 25 22.3137 25 19C25 15.6863 22.3137 13 19 13C15.6863 13 13 15.6863 13 19C13 22.3137 15.6863 25 19 25Z" fill="#FFF700"/>
</svg>
