<svg width="38" height="38" viewBox="0 0 38 38" fill="none" xmlns="http://www.w3.org/2000/svg">
<path fill-rule="evenodd" clip-rule="evenodd" d="M5 0C2.23858 0 0 2.23858 0 5V33C0 35.7614 2.23858 38 5 38H33C35.7614 38 38 35.7614 38 33V5C38 2.23858 35.7614 0 33 0H5ZM6.39573 13.3636V33H11.0236V13.3636H6.39573ZM6.83039 9.84801C7.3588 10.3338 7.98948 10.5767 8.72244 10.5767C9.46391 10.5767 10.0946 10.3338 10.6145 9.84801C11.1429 9.35369 11.4071 8.76136 11.4071 8.07102C11.4071 7.37216 11.1429 6.77983 10.6145 6.29403C10.0946 5.79972 9.46391 5.55256 8.72244 5.55256C7.98948 5.55256 7.3588 5.79972 6.83039 6.29403C6.30198 6.77983 6.03778 7.37216 6.03778 8.07102C6.03778 8.76136 6.30198 9.35369 6.83039 9.84801ZM20.0503 33V21.4943C20.0503 20.5483 20.225 19.7429 20.5744 19.0781C20.9324 18.4134 21.4225 17.9062 22.0446 17.5568C22.6753 17.1989 23.3955 17.0199 24.2051 17.0199C25.3983 17.0199 26.3315 17.3906 27.0048 18.1321C27.6867 18.8736 28.0276 19.9006 28.0276 21.2131V33H32.6554V20.4972C32.6639 18.929 32.3869 17.5952 31.8244 16.4957C31.2705 15.3963 30.4864 14.5568 29.4722 13.9773C28.4665 13.3977 27.2861 13.108 25.931 13.108C24.4651 13.108 23.2335 13.4318 22.2364 14.0795C21.2477 14.7273 20.5276 15.6009 20.0759 16.7003H19.8457V13.3636H15.4225V33H20.0503Z" fill="#FFF700"/>
</svg>
