<svg width="38" height="39" viewBox="0 0 38 39" fill="none" xmlns="http://www.w3.org/2000/svg">
<rect x="1.5" y="1.5" width="35" height="35" rx="8.5" stroke="#2F8938" stroke-width="3"/>
<path d="M19.9331 13.528C21.5331 13.528 22.9838 13.9013 24.2851 14.648C25.6078 15.3733 26.6425 16.408 27.3891 17.752C28.1358 19.0747 28.5091 20.6213 28.5091 22.392C28.5091 24.1627 28.1358 25.72 27.3891 27.064C26.6425 28.3867 25.6078 29.4213 24.2851 30.168C22.9838 30.8933 21.5331 31.256 19.9331 31.256C17.5651 31.256 15.7625 30.5093 14.5251 29.016V31H9.75713V7.256H14.7491V15.608C16.0078 14.2213 17.7358 13.528 19.9331 13.528ZM19.0691 27.16C20.3491 27.16 21.3945 26.7333 22.2051 25.88C23.0371 25.0053 23.4531 23.8427 23.4531 22.392C23.4531 20.9413 23.0371 19.7893 22.2051 18.936C21.3945 18.0613 20.3491 17.624 19.0691 17.624C17.7891 17.624 16.7331 18.0613 15.9011 18.936C15.0905 19.7893 14.6851 20.9413 14.6851 22.392C14.6851 23.8427 15.0905 25.0053 15.9011 25.88C16.7331 26.7333 17.7891 27.16 19.0691 27.16Z" fill="#2F8938"/>
</svg>
