<svg width="53" height="34" viewBox="0 0 53 34" fill="none" xmlns="http://www.w3.org/2000/svg">
<path fill-rule="evenodd" clip-rule="evenodd" d="M12.0251 4.98957C14.4006 4.00563 17.0144 3.74819 19.5362 4.2498C22.0458 4.749 24.3521 5.97767 26.1662 7.78149C24.1821 10.3248 23 13.5244 23 17C23 20.4756 24.1821 23.6752 26.1662 26.2185C24.3521 28.0223 22.0458 29.251 19.5362 29.7502C17.0144 30.2518 14.4006 29.9944 12.0251 29.0104C9.64968 28.0265 7.61935 26.3603 6.1909 24.2224C4.76244 22.0846 4 19.5712 4 17C4 14.4289 4.76244 11.9154 6.19089 9.7776C7.61935 7.63976 9.64967 5.97351 12.0251 4.98957ZM29.0044 29.0044L29.0208 29.0208C26.6433 31.3983 23.6142 33.0174 20.3165 33.6734C17.0189 34.3293 13.6007 33.9926 10.4944 32.706C7.38804 31.4193 4.733 29.2403 2.86502 26.4447C0.997033 23.6491 0 20.3623 0 17C0 13.6377 0.997032 10.351 2.86502 7.55532C4.733 4.75968 7.38804 2.58075 10.4944 1.29406C13.6007 0.00736623 17.0189 -0.329291 20.3165 0.326657C23.6142 0.982606 26.6433 2.6017 29.0208 4.97919L29.0044 4.99561C31.5106 3.11454 34.6252 2.00001 38 2.00001C46.2843 2.00001 53 8.71574 53 17C53 25.2843 46.2843 32 38 32C34.6252 32 31.5106 30.8855 29.0044 29.0044ZM49 17C49 23.0751 44.0751 28 38 28C31.9249 28 27 23.0751 27 17C27 10.9249 31.9249 6.00001 38 6.00001C44.0751 6.00001 49 10.9249 49 17Z" fill="white" fill-opacity="0.85"/>
</svg>
