<svg width="256" height="256" viewBox="0 0 256 256" fill="none" xmlns="http://www.w3.org/2000/svg">
<g filter="url(#filter0_i_66_80)">
<rect width="256" height="256" rx="47" fill="#2259E7"/>
</g>
<path d="M208 128C208 172.183 172.183 208 128 208C83.8172 208 48 172.183 48 128C48 83.8172 83.8172 48 128 48C172.183 48 208 83.8172 208 128ZM68 128C68 161.137 94.8629 188 128 188C161.137 188 188 161.137 188 128C188 94.8629 161.137 68 128 68C94.8629 68 68 94.8629 68 128Z" fill="white"/>
<defs>
<filter id="filter0_i_66_80" x="0" y="-44" width="256" height="300" filterUnits="userSpaceOnUse" color-interpolation-filters="sRGB">
<feFlood flood-opacity="0" result="BackgroundImageFix"/>
<feBlend mode="normal" in="SourceGraphic" in2="BackgroundImageFix" result="shape"/>
<feColorMatrix in="SourceAlpha" type="matrix" values="0 0 0 0 0 0 0 0 0 0 0 0 0 0 0 0 0 0 127 0" result="hardAlpha"/>
<feOffset dy="-44"/>
<feGaussianBlur stdDeviation="36"/>
<feComposite in2="hardAlpha" operator="arithmetic" k2="-1" k3="1"/>
<feColorMatrix type="matrix" values="0 0 0 0 0 0 0 0 0 0 0 0 0 0 0 0 0 0 0.25 0"/>
<feBlend mode="normal" in2="shape" result="effect1_innerShadow_66_80"/>
</filter>
</defs>
</svg>
