<svg width="32" height="32" viewBox="0 0 32 32" fill="none" xmlns="http://www.w3.org/2000/svg">
<path d="M4.69294 15.7989C5.14494 16.1707 5.50916 16.6378 5.75952 17.1668C6.39947 18.4867 6.39947 20.0999 6.39947 21.6651C6.39947 24.9062 6.53279 26.4647 9.5992 26.4647C9.88207 26.4647 10.1534 26.5771 10.3534 26.7771C10.5534 26.9771 10.6658 27.2484 10.6658 27.5313C10.6658 27.8142 10.5534 28.0855 10.3534 28.2855C10.1534 28.4855 9.88207 28.5979 9.5992 28.5979C7.26873 28.5979 5.69019 27.7793 4.90626 26.1634C4.26631 24.8435 4.26631 23.2303 4.26631 21.6651C4.26631 18.424 4.13299 16.8655 1.06658 16.8655C0.783704 16.8655 0.512416 16.7531 0.312393 16.5531C0.112371 16.3531 0 16.0818 0 15.7989C0 15.5161 0.112371 15.2448 0.312393 15.0447C0.512416 14.8447 0.783704 14.7324 1.06658 14.7324C4.13299 14.7324 4.26631 13.1738 4.26631 9.93276C4.26631 8.37022 4.26631 6.75435 4.90626 5.43446C5.69286 3.8186 7.27139 3 9.60187 3C9.88474 3 10.156 3.11237 10.3561 3.31239C10.5561 3.51242 10.6684 3.7837 10.6684 4.06658C10.6684 4.34945 10.5561 4.62074 10.3561 4.82076C10.156 5.02078 9.88474 5.13316 9.60187 5.13316C6.53545 5.13316 6.40213 6.69169 6.40213 9.93276C6.40213 11.4953 6.40213 13.1112 5.76219 14.431C5.51105 14.9603 5.14591 15.4274 4.69294 15.7989ZM30.9334 14.7324C27.867 14.7324 27.7337 13.1738 27.7337 9.93276C27.7337 8.37022 27.7337 6.75435 27.0937 5.43446C26.3098 3.8186 24.7313 3 22.4008 3C22.1179 3 21.8466 3.11237 21.6466 3.31239C21.4466 3.51242 21.3342 3.7837 21.3342 4.06658C21.3342 4.34945 21.4466 4.62074 21.6466 4.82076C21.8466 5.02078 22.1179 5.13316 22.4008 5.13316C25.4672 5.13316 25.6005 6.69169 25.6005 9.93276C25.6005 11.4953 25.6005 13.1112 26.2405 14.431C26.4908 14.96 26.8551 15.4272 27.3071 15.7989C26.8551 16.1707 26.4908 16.6378 26.2405 17.1668C25.6005 18.4867 25.6005 20.0999 25.6005 21.6651C25.6005 24.9062 25.4672 26.4647 22.4008 26.4647C22.1179 26.4647 21.8466 26.5771 21.6466 26.7771C21.4466 26.9771 21.3342 27.2484 21.3342 27.5313C21.3342 27.8142 21.4466 28.0855 21.6466 28.2855C21.8466 28.4855 22.1179 28.5979 22.4008 28.5979C24.7313 28.5979 26.3098 27.7793 27.0937 26.1634C27.7337 24.8435 27.7337 23.2303 27.7337 21.6651C27.7337 18.424 27.867 16.8655 30.9334 16.8655C31.2163 16.8655 31.4876 16.7531 31.6876 16.5531C31.8876 16.3531 32 16.0818 32 15.7989C32 15.5161 31.8876 15.2448 31.6876 15.0447C31.4876 14.8447 31.2163 14.7324 30.9334 14.7324Z" fill="#8522E7"/>
<path d="M8.23586 22.7V20.96H10.4409C10.9409 20.96 11.3259 20.825 11.5959 20.555C11.8659 20.285 12.0009 19.905 12.0009 19.415V13.49H8.68586V11.75H13.8759V19.46C13.8759 20.46 13.5759 21.25 12.9759 21.83C12.3759 22.41 11.5659 22.7 10.5459 22.7H8.23586ZM12.8709 10.37C12.4909 10.37 12.1909 10.275 11.9709 10.085C11.7509 9.885 11.6409 9.62 11.6409 9.29C11.6409 8.96 11.7509 8.7 11.9709 8.51C12.1909 8.31 12.4909 8.21 12.8709 8.21C13.2509 8.21 13.5509 8.31 13.7709 8.51C13.9909 8.7 14.1009 8.96 14.1009 9.29C14.1009 9.62 13.9909 9.885 13.7709 10.085C13.5509 10.275 13.2509 10.37 12.8709 10.37ZM16.78 20V11.75H18.31V12.86H18.625L18.37 13.13C18.37 12.67 18.5 12.3 18.76 12.02C19.02 11.74 19.355 11.6 19.765 11.6C20.205 11.6 20.545 11.78 20.785 12.14C21.035 12.5 21.16 12.985 21.16 13.595L20.83 12.86H21.34L21.145 13.13C21.145 12.67 21.275 12.3 21.535 12.02C21.795 11.74 22.14 11.6 22.57 11.6C23.08 11.6 23.485 11.79 23.785 12.17C24.085 12.55 24.235 13.065 24.235 13.715V20H22.585V13.79C22.585 13.52 22.525 13.31 22.405 13.16C22.285 13 22.11 12.92 21.88 12.92C21.66 12.92 21.485 12.995 21.355 13.145C21.235 13.295 21.175 13.51 21.175 13.79V20H19.825V13.79C19.825 13.51 19.765 13.295 19.645 13.145C19.525 12.995 19.35 12.92 19.12 12.92C18.89 12.92 18.715 12.995 18.595 13.145C18.485 13.295 18.43 13.51 18.43 13.79V20H16.78Z" fill="#8522E7"/>
</svg>
