<svg width="40" height="36" viewBox="0 0 40 36" fill="none" xmlns="http://www.w3.org/2000/svg">
<g clip-path="url(#clip0_398_2)">
<path d="M36.875 6.5625H3.125C2.08947 6.5625 1.25 7.40197 1.25 8.4375V32.8125C1.25 33.848 2.08947 34.6875 3.125 34.6875H36.875C37.9105 34.6875 38.75 33.848 38.75 32.8125V8.4375C38.75 7.40197 37.9105 6.5625 36.875 6.5625Z" stroke="#8F5CFF" stroke-width="2"/>
<path fill-rule="evenodd" clip-rule="evenodd" d="M13.5 2.5C13.5 2.36193 13.6119 2.25 13.75 2.25H26.25C26.3881 2.25 26.5 2.36195 26.5 2.5V5.5625H28.5V2.5C28.5 1.25733 27.4926 0.25 26.25 0.25H13.75C12.5074 0.25 11.5 1.25736 11.5 2.5V5.5625H13.5V2.5Z" fill="#00FFA9"/>
<path d="M7.32 26.3916C6.92953 26.3916 6.59483 26.2542 6.31592 25.9797C6.037 25.705 5.89969 25.3703 5.90398 24.9756C5.89969 24.5894 6.037 24.2591 6.31592 23.9844C6.59483 23.7097 6.92953 23.5725 7.32 23.5725C7.69761 23.5725 8.02586 23.7097 8.30478 23.9844C8.58798 24.2591 8.73173 24.5894 8.73601 24.9756C8.73173 25.2374 8.66308 25.4755 8.53005 25.69C8.40133 25.9045 8.22969 26.0763 8.01514 26.205C7.80487 26.3294 7.57317 26.3916 7.32 26.3916Z" fill="#00FFA9"/>
<path d="M10.2354 26.25V16.3636H12.4624V18.0436H12.5783C12.7842 17.4772 13.1254 17.0351 13.6016 16.7176C14.0779 16.3958 14.6465 16.2348 15.3073 16.2348C15.9767 16.2348 16.5409 16.398 17.0002 16.7241C17.4634 17.0459 17.7897 17.4858 17.9784 18.0436H18.0814C18.3003 17.4944 18.6692 17.0566 19.1884 16.7305C19.712 16.4001 20.332 16.2348 21.0486 16.2348C21.9583 16.2348 22.7006 16.5223 23.2756 17.0973C23.8506 17.6723 24.1381 18.5112 24.1381 19.6141V26.25H21.8017V19.9745C21.8017 19.3609 21.6386 18.9125 21.3125 18.6292C20.9864 18.3417 20.5874 18.198 20.1153 18.198C19.5531 18.198 19.1134 18.3739 18.7958 18.7258C18.4827 19.0734 18.3259 19.5261 18.3259 20.0839V26.25H16.0411V19.878C16.0411 19.3673 15.8866 18.9597 15.5776 18.655C15.273 18.3503 14.8739 18.198 14.3805 18.198C14.0458 18.198 13.7411 18.2839 13.4665 18.4555C13.1919 18.6228 12.973 18.8609 12.81 19.17C12.6469 19.4745 12.5654 19.8308 12.5654 20.2384V26.25H10.2354ZM29.9724 26.4431C28.9813 26.4431 28.1252 26.2372 27.4042 25.8251C26.6877 25.4089 26.1363 24.8211 25.7502 24.0616C25.3639 23.2978 25.1708 22.3989 25.1708 21.3647C25.1708 20.3478 25.3639 19.4553 25.7502 18.6872C26.1406 17.9148 26.6855 17.3141 27.385 16.885C28.0844 16.4516 28.9061 16.2348 29.8502 16.2348C30.4594 16.2348 31.0344 16.3336 31.575 16.5309C32.12 16.7241 32.6006 17.0244 33.0169 17.432C33.4373 17.8397 33.7678 18.3589 34.008 18.9897C34.2483 19.6162 34.3684 20.3628 34.3684 21.2295V21.9441H26.265V20.3736H32.135C32.1308 19.9273 32.0342 19.5303 31.8455 19.1828C31.6566 18.8309 31.3927 18.5542 31.0538 18.3525C30.7191 18.1508 30.3286 18.05 29.8823 18.05C29.4059 18.05 28.9877 18.1658 28.6272 18.3975C28.2667 18.625 27.9856 18.9253 27.7841 19.2986C27.5866 19.6676 27.4858 20.0731 27.4816 20.5151V21.8861C27.4816 22.4611 27.5866 22.9545 27.7969 23.3664C28.0072 23.7741 28.3011 24.0873 28.6786 24.3062C29.0563 24.5208 29.4983 24.628 30.0045 24.628C30.3436 24.628 30.6503 24.5808 30.925 24.4864C31.1995 24.3876 31.4378 24.2439 31.6394 24.0551C31.8411 23.8664 31.9934 23.6325 32.0964 23.3536L34.2719 23.5981C34.1347 24.1731 33.8728 24.6751 33.4867 25.1044C33.1049 25.5291 32.6156 25.8595 32.0192 26.0955C31.4227 26.3272 30.7405 26.4431 29.9724 26.4431Z" fill="#F266FF"/>
</g>
<defs>
<clipPath id="clip0_398_2">
<rect width="40" height="35.9375" fill="white"/>
</clipPath>
</defs>
</svg>
